<svg width="341" height="131" viewBox="0 0 341 131" fill="none" xmlns="http://www.w3.org/2000/svg">
<rect x="0.5" y="0.5" width="340" height="130" rx="5.5" fill="white" stroke="#272727"/>
<path d="M163.502 89.2968H52.8508C51.9831 89.2968 51.1508 89.1117 50.5372 88.7823C49.9236 88.4529 49.5789 88.0061 49.5789 87.5402V4.03801C49.5864 3.5748 49.9345 3.13194 50.5473 2.80583C51.1601 2.47972 51.988 2.29677 52.8508 2.29678H163.502C163.932 2.29678 164.358 2.34222 164.755 2.4305C165.151 2.51878 165.512 2.64817 165.816 2.81128C166.12 2.9744 166.361 3.16805 166.525 3.38117C166.69 3.59429 166.774 3.82271 166.774 4.0534V87.5402C166.774 87.7709 166.69 87.9993 166.525 88.2124C166.361 88.4255 166.12 88.6192 165.816 88.7823C165.512 88.9454 165.151 89.0748 164.755 89.1631C164.358 89.2514 163.932 89.2968 163.502 89.2968ZM52.8508 2.35831C52.0215 2.35912 51.2266 2.53635 50.6402 2.85118C50.0537 3.16601 49.7236 3.59278 49.7221 4.03801V87.5402C49.7236 87.9854 50.0537 88.4122 50.6402 88.727C51.2266 89.0418 52.0215 89.2191 52.8508 89.2199H163.502C164.332 89.2191 165.127 89.0418 165.713 88.727C166.299 88.4122 166.63 87.9854 166.631 87.5402V4.03801C166.63 3.59278 166.299 3.16601 165.713 2.85118C165.127 2.53635 164.332 2.35912 163.502 2.35831H52.8508Z" fill="#EBEBEB"/>
<path d="M287.149 89.2968H176.498C175.63 89.2968 174.798 89.1117 174.184 88.7823C173.57 88.4529 173.226 88.0061 173.226 87.5402V4.03801C173.233 3.5748 173.581 3.13194 174.194 2.80583C174.807 2.47972 175.635 2.29677 176.498 2.29678H287.149C288.017 2.29678 288.849 2.48185 289.463 2.81128C290.076 3.14071 290.421 3.58751 290.421 4.0534V87.5402C290.421 88.0061 290.076 88.4529 289.463 88.7823C288.849 89.1117 288.017 89.2968 287.149 89.2968ZM176.498 2.35831C175.668 2.35912 174.873 2.53635 174.287 2.85118C173.7 3.16601 173.37 3.59278 173.369 4.03801V87.5402C173.37 87.9854 173.7 88.4122 174.287 88.727C174.873 89.0418 175.668 89.2191 176.498 89.2199H287.149C287.978 89.2191 288.773 89.0418 289.36 88.727C289.946 88.4122 290.276 87.9854 290.278 87.5402V4.03801C290.276 3.59278 289.946 3.16601 289.36 2.85118C288.773 2.53635 287.978 2.35912 287.149 2.35831H176.498Z" fill="#EBEBEB"/>
<path d="M313 113.474H27V113.607H313V113.474Z" fill="#EBEBEB"/>
<path d="M246.963 112.936H57.8879C57.9171 112.387 58.0507 111.846 58.2826 111.34C58.2826 111.34 149.408 20.5119 154.047 16.3889C154.116 16.3304 154.184 16.2719 154.258 16.2187C154.529 16.0088 154.842 15.8515 155.179 15.7558C155.674 15.6307 156.197 15.6476 156.681 15.8042C157.165 15.9609 157.587 16.25 157.891 16.6336L246.963 112.936Z" fill="#BFBFBF"/>
<path opacity="0.2" d="M160.436 42.0526C154.207 50.0911 65.6557 110.947 57.8879 112.936L58.2826 111.34L154.258 16.2187L155.179 15.7558C154.127 17.8838 153.172 22.7729 155.334 25.6138C158.354 29.5665 166.659 33.9928 160.436 42.0526Z" fill="#BFBFBF"/>
<path d="M287.952 112.936L78.0796 112.904C78.0796 112.904 181.114 44.4679 185.947 41.2652L186.125 41.1482L186.823 40.696C187.051 40.5523 187.269 40.4193 187.469 40.2863C188.668 39.5013 190.093 39.0695 191.559 39.0468C193.392 39.0902 195.147 39.7433 196.506 40.8875C215.102 55.4324 287.952 112.936 287.952 112.936Z" fill="#BFBFBF"/>
<path d="M198.165 51.219C197.753 54.0038 196.431 56.6037 194.379 58.667C192.708 60.4864 190.878 62.1462 189.803 64.9765C188.727 67.8067 188.796 72.2861 190.523 73.9247C191.587 74.9408 192.954 74.6163 194.035 75.5845C195.78 77.1433 196.003 81.5749 194.985 84.469C193.967 87.363 192.125 89.0442 190.334 90.5178C175.577 102.78 159.618 109.835 143.293 112.91C127.231 112.91 78.0852 112.91 78.0852 112.91L186.119 41.1535C186.365 40.9939 186.599 40.8503 186.822 40.7013C187.045 40.5523 187.269 40.4247 187.469 40.2863C189.551 39.6639 191.662 39.3819 193.669 40.3981C196.403 41.7866 198.789 46.4629 198.165 51.219Z" fill="#BFBFBF"/>
<path d="M287.632 113.138C287.632 113.138 265.524 96.9975 257.167 96.7209C248.81 96.4443 188.476 112.947 188.476 112.947L287.632 113.138Z" fill="#BFBFBF"/>
<path d="M132.631 112.926C132.631 112.926 88.673 100.338 81.912 100.057C75.1509 99.7746 52.168 112.729 52.168 112.729L132.631 112.926Z" fill="#BFBFBF"/>
<path d="M133.444 10.2968C133.268 10.2377 133.097 10.1586 132.93 10.0603C132.622 9.88551 132.213 9.59762 131.814 9.30973C131.476 9.06856 131.112 8.91042 130.738 8.84191C130.447 8.79564 130.25 8.84191 130.221 8.73395C130.192 8.62599 130.365 8.42035 130.72 8.32782C131.175 8.23598 131.639 8.34916 132.048 8.6517C132.423 8.9503 132.764 9.332 133.056 9.78269C133.3 10.0963 133.444 10.2968 133.444 10.2968Z" fill="#E6E6E6"/>
<path d="M135.594 8.39856L135.274 8.53206C135.079 8.6155 134.829 8.73565 134.554 8.86582C134 9.11948 133.529 9.38315 133.452 9.26968C133.417 9.21627 133.491 9.08944 133.651 8.93591C133.861 8.726 134.106 8.55751 134.374 8.43861C134.649 8.31449 134.951 8.27065 135.248 8.31178C135.338 8.32323 135.426 8.34449 135.511 8.37519L135.594 8.39856Z" fill="#E6E6E6"/>
<path d="M130.218 12.2968L130.095 12.1906C130.02 12.1139 129.905 12.0195 129.766 11.9074C129.413 11.6273 129.046 11.3886 128.669 11.1935C127.797 10.7333 127.016 10.8336 126.992 10.6389C126.992 10.5504 127.171 10.397 127.508 10.3262C127.95 10.2492 128.399 10.3239 128.819 10.5445C129.239 10.7646 129.614 11.1403 129.909 11.636C129.998 11.7836 130.078 11.9437 130.147 12.1139C130.19 12.2319 130.218 12.2968 130.218 12.2968Z" fill="#E6E6E6"/>
<path d="M131.293 10.3342L130.97 10.4868L130.249 10.826C129.704 11.0702 129.287 11.3619 129.184 11.2839C129.082 11.2059 129.184 11.1279 129.324 10.9719C129.51 10.7676 129.748 10.5987 130.02 10.4766C130.295 10.3563 130.601 10.2946 130.912 10.2969C131.041 10.2956 131.169 10.3081 131.293 10.3342Z" fill="#E6E6E6"/>
<path d="M129.122 9.05195C127.855 8.38346 126.76 7.44142 125.917 6.29678C125.959 6.71987 126.105 7.12656 126.343 7.48154C126.581 7.83653 126.904 8.12907 127.284 8.33378C127.839 8.62758 128.427 9.15315 129.042 9.29678C129.076 9.23476 129.189 9.08786 129.122 9.05195Z" fill="#E6E6E6"/>
<path d="M128.068 8.13939L130.218 6.29678C130.114 6.69276 129.925 7.06441 129.664 7.38889C129.402 7.71337 129.073 7.98382 128.697 8.18361C128.582 8.24673 128.453 8.28498 128.32 8.29564C128.265 8.30084 128.211 8.28817 128.165 8.25973C128.119 8.2313 128.084 8.18882 128.068 8.13939Z" fill="#E6E6E6"/>
<path d="M128.048 15.052C126.781 14.3836 125.685 13.4416 124.842 12.2968C124.886 12.7188 125.032 13.1243 125.268 13.4791C125.505 13.8339 125.824 14.1276 126.201 14.3354C126.753 14.6291 127.346 15.1544 127.958 15.2968C128.003 15.2345 128.112 15.0876 128.048 15.052Z" fill="#E6E6E6"/>
<path d="M126.992 14.1391L129.143 12.2968C129.039 12.6924 128.851 13.0637 128.59 13.3881C128.329 13.7125 128.001 13.9831 127.626 14.1833C127.508 14.2466 127.378 14.285 127.243 14.296C127.189 14.3003 127.134 14.2872 127.089 14.2588C127.043 14.2303 127.009 14.1881 126.992 14.1391Z" fill="#E6E6E6"/>
<path d="M133.432 13.1355C132.587 12.6888 131.856 12.0602 131.293 11.2968C131.322 11.5789 131.42 11.8499 131.579 12.0865C131.738 12.3232 131.953 12.5183 132.206 12.6552C132.57 12.8523 132.968 13.2036 133.377 13.2968C133.399 13.2538 133.472 13.157 133.432 13.1355Z" fill="#E6E6E6"/>
<path d="M132.368 13.1413L133.444 11.2968C133.39 11.6942 133.295 12.0668 133.163 12.3916C133.031 12.7163 132.865 12.9863 132.676 13.185C132.617 13.246 132.553 13.284 132.486 13.2967C132.46 13.2982 132.435 13.2839 132.414 13.2559C132.393 13.2279 132.377 13.1878 132.368 13.1413Z" fill="#E6E6E6"/>
<path d="M243.25 46.3724C242.961 46.3055 242.678 46.2184 242.404 46.1117C241.895 45.9309 241.26 45.617 240.556 45.3084C239.988 45.0368 239.375 44.8569 238.743 44.7764C238.262 44.7285 237.936 44.7764 237.891 44.6594C237.845 44.5423 238.125 44.3242 238.714 44.2231C239.47 44.1264 240.239 44.249 240.916 44.5743C241.553 44.88 242.132 45.2788 242.632 45.7553C243.016 46.133 243.25 46.3724 243.25 46.3724Z" fill="#E6E6E6"/>
<path d="M246.23 44.138L245.618 44.3615C245.252 44.4998 244.789 44.6966 244.274 44.8935C243.25 45.3137 242.375 45.7553 242.232 45.5638C242.169 45.4733 242.301 45.2605 242.598 44.9945C242.991 44.6498 243.446 44.3725 243.942 44.1753C244.454 43.9697 245.015 43.8962 245.567 43.9625C245.734 43.9851 245.898 44.0207 246.059 44.0689L246.23 44.138Z" fill="#E6E6E6"/>
<path d="M237.725 48.0323L237.559 47.9365C237.456 47.8727 237.296 47.7929 237.107 47.6971C236.626 47.4568 236.125 47.2539 235.608 47.0906C234.413 46.6916 233.32 46.7767 233.32 46.6118C233.32 46.5373 233.561 46.4043 234.024 46.3458C234.63 46.2798 235.244 46.3435 235.82 46.532C236.396 46.7197 236.91 47.0422 237.313 47.4683C237.432 47.5939 237.54 47.7292 237.633 47.8727L237.725 48.0323Z" fill="#E6E6E6"/>
<path d="M238.897 45.7393L238.468 45.9681L237.519 46.4629C236.798 46.8299 236.243 47.2609 236.106 47.1438C235.969 47.0268 236.106 46.9151 236.289 46.681C236.538 46.3772 236.854 46.1269 237.216 45.9468C237.578 45.7679 237.984 45.6764 238.394 45.6808C238.564 45.6807 238.733 45.7003 238.897 45.7393Z" fill="#E6E6E6"/>
<path d="M236.741 44.4306C236.741 44.4306 236.335 44.2976 235.717 44.0582C235.099 43.8188 234.264 43.473 233.355 43.1911C232.585 42.9514 231.775 42.8468 230.964 42.8825C230.34 42.9197 229.94 43.0261 229.883 42.9251C229.826 42.824 230.157 42.5314 230.855 42.3399C231.767 42.1183 232.729 42.1553 233.618 42.4463C234.474 42.7278 235.262 43.1615 235.94 43.7231C236.221 43.9454 236.488 44.1816 236.741 44.4306Z" fill="#E6E6E6"/>
<path d="M239.481 41.1907L239.252 41.2546C239.103 41.2865 238.897 41.345 238.646 41.4195C238.021 41.6125 237.408 41.8362 236.81 42.0898C235.425 42.6697 234.522 43.5262 234.339 43.3879C234.253 43.3241 234.339 43.0102 234.722 42.6005C235.191 42.0813 235.777 41.6637 236.438 41.3769C237.108 41.0946 237.844 40.9755 238.577 41.0311C238.798 41.0445 239.016 41.0784 239.229 41.1322L239.481 41.1907Z" fill="#E6E6E6"/>
<path d="M95.6134 37.3262C97.2174 36.8984 98.142 35.1298 97.9332 33.6129C97.7244 32.0961 96.2232 30.7916 94.5728 30.5792C94.6258 29.9725 94.8545 29.5599 94.8545 28.9441C94.845 27.6202 94.4666 26.3205 93.755 25.168C93.0434 24.0154 92.0223 23.0482 90.7883 22.3579C88.3094 21.0049 84.3459 20.9321 82.5033 22.2184C81.5769 22.9029 80.8324 23.7711 80.326 24.7576C79.3284 24.2381 78.1979 23.9705 77.0502 23.9822C75.9026 23.9939 74.7789 24.2845 73.7942 24.8243C71.8455 25.9195 70.7188 28.1401 70.858 30.2304C70.0274 29.9828 69.149 29.8986 68.2804 29.9833C67.4117 30.068 66.5724 30.3197 65.8174 30.7218C64.3394 31.5652 63.3684 33.1821 63.5871 34.7657C63.8058 36.3493 64.8928 37.4536 67.0701 37.7812C67.0834 37.7661 80.041 41.4854 95.6134 37.3262Z" fill="#CFCACA"/>
<path d="M274.281 18.2083C274.271 17.7703 274.155 17.34 273.942 16.9492C273.729 16.5585 273.424 16.2172 273.05 15.9507C272.676 15.6841 272.243 15.499 271.781 15.4092C271.32 15.3193 270.843 15.3268 270.386 15.4313C270.741 13.0958 269.093 10.2496 266.674 9.5793C264.254 8.90898 261.434 10.1645 260.313 12.2819C259.809 11.7477 259.179 11.3286 258.472 11.057C257.766 10.7855 257.002 10.6688 256.239 10.716C255.476 10.7631 254.735 10.9729 254.074 11.3291C253.412 11.6852 252.848 12.1782 252.424 12.7698C252 13.3614 251.728 14.0358 251.629 14.7408C251.53 15.4458 251.607 16.1625 251.854 16.8354C252.101 17.5083 252.511 18.1193 253.052 18.6213C253.594 19.1232 254.252 19.5025 254.976 19.7299C254.735 20.5067 254.806 21.3387 255.177 22.0702C255.547 22.8017 256.192 23.3825 256.99 23.7039C258.374 24.2359 260.565 24.2359 261.486 22.7676C262.63 24.5125 264.963 25.2148 267.143 24.8956C269.196 24.587 271.559 23.0655 270.992 21.1716C270.992 21.1716 270.901 20.7939 270.901 20.7885C270.901 20.7832 274.356 21.2248 274.281 18.2083Z" fill="#CFCACA"/>
<path d="M209.645 18.079C211.366 11.2961 206.849 4.49965 199.557 2.89873C192.264 1.29781 184.956 5.49867 183.235 12.2816C181.514 19.0645 186.03 25.861 193.323 27.4619C200.616 29.0628 207.924 24.862 209.645 18.079Z" fill="#407BFF"/>
<path opacity="0.95" d="M209.645 18.079C211.366 11.2961 206.849 4.49965 199.557 2.89873C192.264 1.29781 184.956 5.49867 183.235 12.2816C181.514 19.0645 186.03 25.861 193.323 27.4619C200.616 29.0628 207.924 24.862 209.645 18.079Z" fill="#DCD9D9"/>
<path d="M288.513 53.4005H51.6704V53.7995H288.513V53.4005Z" fill="#407BFF"/>
<path d="M113.406 52.9483H112.262V66.493H113.406V52.9483Z" fill="#263238"/>
<path d="M227.932 52.9483H226.788V66.7856H227.932V52.9483Z" fill="#263238"/>
<path d="M167.375 47.208H163.874V67.5038H167.375V47.208Z" fill="#263238"/>
<path d="M170.143 53.0653H165.539V54.1293H170.143V53.0653Z" fill="#263238"/>
<path d="M67.4575 58.5928L54.9192 62.9818C53.4721 63.5138 53.4835 65.6418 54.9192 66.1365C56.5516 66.6713 58.274 66.929 60.0043 66.8973H120.236V57.2362H75.2881C72.6114 57.2459 69.9585 57.7055 67.4575 58.5928Z" fill="#407BFF"/>
<path opacity="0.5" d="M120.236 57.2362V66.876H60.0156C58.2852 66.9077 56.5628 66.65 54.9305 66.1153C53.4833 65.6099 53.4719 63.4552 54.9305 62.9605L55.8857 62.6253L61.7201 60.5824L62.029 60.4761L67.3372 58.6194C67.3372 58.6194 67.3372 58.6194 67.3829 58.6194L67.4687 58.5874C69.6674 57.814 71.9843 57.3705 74.3327 57.2734C74.653 57.2734 74.9791 57.2734 75.3051 57.2734L120.236 57.2362Z" fill="#DCD9D9"/>
<path opacity="0.3" d="M120.236 57.2575V58.5928H67.3716L67.4574 58.5609C69.6561 57.7874 71.973 57.3439 74.3214 57.2468L120.236 57.2575Z" fill="#DCD9D9"/>
<path opacity="0.3" d="M74.3157 57.2574L73.7437 57.9703C73.7437 57.9703 69.5338 62.6147 64.7747 62.6253C60.7021 62.6253 56.904 62.6253 55.8916 62.6253H55.5999C55.5999 62.6253 58.5399 61.6571 61.6974 60.5824L62.0063 60.4761C63.9225 59.827 65.8959 59.1407 67.3144 58.6194C67.3562 58.5988 67.4003 58.5828 67.446 58.5715C69.6465 57.7975 71.9654 57.354 74.3157 57.2574Z" fill="#DCD9D9"/>
<path d="M120.236 64.6735V66.876H60.0156C58.2853 66.9082 56.5628 66.6505 54.9306 66.1153C54.6173 66.0006 54.3473 65.8027 54.154 65.5464C53.9608 65.29 53.8529 64.9865 53.8438 64.6735H120.236Z" fill="#407BFF"/>
<path d="M61.2283 60.8857L67.9207 58.5928H71.959C72.1363 58.5937 72.3098 58.6409 72.4598 58.7288C72.6099 58.8168 72.7304 58.9421 72.8078 59.0905C72.8852 59.2389 72.9164 59.4044 72.8978 59.5685C72.8792 59.7325 72.8116 59.8884 72.7026 60.0185C72.4738 60.289 72.1819 60.5077 71.849 60.6579C71.516 60.8081 71.1507 60.886 70.7807 60.8857H61.2283Z" fill="#263238"/>
<g opacity="0.2">
<path d="M74.333 64.4714L77.296 57.9703H74.333V64.4714Z" fill="#DCD9D9"/>
</g>
<g opacity="0.2">
<path d="M78.949 64.4714L81.9119 57.9703H78.949V64.4714Z" fill="#DCD9D9"/>
</g>
<path d="M76.3063 58.5236H75.2195V60.8165H76.3063V58.5236Z" fill="#263238"/>
<path d="M80.4534 58.5236H80.4019C79.8554 58.5236 79.4124 58.9357 79.4124 59.444V59.8962C79.4124 60.4045 79.8554 60.8165 80.4019 60.8165H80.4534C80.9999 60.8165 81.443 60.4045 81.443 59.8962V59.444C81.443 58.9357 80.9999 58.5236 80.4534 58.5236Z" fill="#263238"/>
<path d="M116.381 58.5236H116.329C115.783 58.5236 115.34 58.9357 115.34 59.444V59.8962C115.34 60.4045 115.783 60.8165 116.329 60.8165H116.381C116.927 60.8165 117.37 60.4045 117.37 59.8962V59.444C117.37 58.9357 116.927 58.5236 116.381 58.5236Z" fill="#263238"/>
<path d="M86.1733 59.7738H84.6403C84.1633 59.7738 83.7766 60.1335 83.7766 60.5771V61.0613C83.7766 61.5049 84.1633 61.8646 84.6403 61.8646H86.1733C86.6503 61.8646 87.037 61.5049 87.037 61.0613V60.5771C87.037 60.1335 86.6503 59.7738 86.1733 59.7738Z" fill="#263238"/>
<path d="M90.3662 59.7738H88.8332C88.3562 59.7738 87.9695 60.1335 87.9695 60.5771V61.0613C87.9695 61.5049 88.3562 61.8646 88.8332 61.8646H90.3662C90.8432 61.8646 91.2299 61.5049 91.2299 61.0613V60.5771C91.2299 60.1335 90.8432 59.7738 90.3662 59.7738Z" fill="#263238"/>
<path d="M94.5588 59.7738H93.0258C92.5488 59.7738 92.1621 60.1335 92.1621 60.5771V61.0613C92.1621 61.5049 92.5488 61.8646 93.0258 61.8646H94.5588C95.0358 61.8646 95.4225 61.5049 95.4225 61.0613V60.5771C95.4225 60.1335 95.0358 59.7738 94.5588 59.7738Z" fill="#263238"/>
<path d="M98.7517 59.7738H97.2187C96.7417 59.7738 96.355 60.1335 96.355 60.5771V61.0613C96.355 61.5049 96.7417 61.8646 97.2187 61.8646H98.7517C99.2287 61.8646 99.6154 61.5049 99.6154 61.0613V60.5771C99.6154 60.1335 99.2287 59.7738 98.7517 59.7738Z" fill="#263238"/>
<path d="M102.944 59.7738H101.411C100.934 59.7738 100.548 60.1335 100.548 60.5771V61.0613C100.548 61.5049 100.934 61.8646 101.411 61.8646H102.944C103.421 61.8646 103.808 61.5049 103.808 61.0613V60.5771C103.808 60.1335 103.421 59.7738 102.944 59.7738Z" fill="#263238"/>
<path d="M107.131 59.7738H105.598C105.121 59.7738 104.735 60.1335 104.735 60.5771V61.0613C104.735 61.5049 105.121 61.8646 105.598 61.8646H107.131C107.608 61.8646 107.995 61.5049 107.995 61.0613V60.5771C107.995 60.1335 107.608 59.7738 107.131 59.7738Z" fill="#263238"/>
<path d="M111.324 59.7738H109.791C109.314 59.7738 108.927 60.1335 108.927 60.5771V61.0613C108.927 61.5049 109.314 61.8646 109.791 61.8646H111.324C111.801 61.8646 112.188 61.5049 112.188 61.0613V60.5771C112.188 60.1335 111.801 59.7738 111.324 59.7738Z" fill="#263238"/>
<path d="M85.7558 58.5236H85.0637V59.1673H85.7558V58.5236Z" fill="#263238"/>
<path d="M110.906 58.5236H110.214V59.1673H110.906V58.5236Z" fill="#263238"/>
<path d="M82.0721 64.8065H78.8289V57.8373H82.0721V64.8065ZM79.1149 64.5405H81.7861V58.1033H79.1149V64.5405Z" fill="#DCD9D9"/>
<path d="M77.4389 64.8065H74.1899V57.8373H77.4389V64.8065ZM74.4759 64.5405H77.1529V58.1033H74.4759V64.5405Z" fill="#DCD9D9"/>
<path d="M117.982 64.8065H114.733V57.8373H117.982V64.8065ZM115.019 64.5405H117.696V58.1033H115.019V64.5405Z" fill="#DCD9D9"/>
<path d="M272.542 58.5928L285.081 62.9818C286.528 63.5138 286.516 65.6418 285.081 66.1365C283.448 66.6713 281.726 66.929 279.996 66.8973H219.764V57.2362H264.712C267.388 57.2459 270.041 57.7055 272.542 58.5928Z" fill="#407BFF"/>
<path opacity="0.5" d="M272.542 58.5928L285.081 62.9818C286.528 63.5138 286.516 65.6418 285.081 66.1365C283.448 66.6713 281.726 66.929 279.996 66.8973H219.764V57.2362H264.712C267.388 57.2459 270.041 57.7055 272.542 58.5928Z" fill="#DCD9D9"/>
<path opacity="0.3" d="M265.667 57.316L266.239 58.0289C266.239 58.0289 270.449 62.6732 275.208 62.6839C279.281 62.6839 283.079 62.6839 284.091 62.6839H284.4C284.4 62.6839 281.46 61.7156 278.302 60.641L277.994 60.5346C276.077 59.8855 274.104 59.1993 272.685 58.6779C272.644 58.6574 272.6 58.6413 272.554 58.63C270.348 57.8544 268.023 57.4108 265.667 57.316Z" fill="#DCD9D9"/>
<path d="M219.764 64.6735V66.876H279.984C281.714 66.9082 283.437 66.6505 285.069 66.1153C285.382 66.0006 285.652 65.8027 285.846 65.5464C286.039 65.29 286.147 64.9865 286.156 64.6735H219.764Z" fill="#407BFF"/>
<path d="M278.771 60.8857L272.079 58.5928H268.041C267.863 58.5937 267.69 58.6409 267.54 58.7288C267.39 58.8168 267.269 58.9421 267.192 59.0905C267.114 59.2389 267.083 59.4044 267.102 59.5685C267.121 59.7325 267.188 59.8884 267.297 60.0185C267.526 60.289 267.818 60.5077 268.151 60.6579C268.484 60.8081 268.849 60.886 269.219 60.8857H278.771Z" fill="#263238"/>
<path d="M263.699 60.8165H264.786V58.5236H263.699V60.8165Z" fill="#263238"/>
<path d="M259.541 60.8165H259.592C260.139 60.8165 260.582 60.4045 260.582 59.8962V59.444C260.582 58.9357 260.139 58.5236 259.592 58.5236H259.541C258.994 58.5236 258.551 58.9357 258.551 59.444V59.8962C258.551 60.4045 258.994 60.8165 259.541 60.8165Z" fill="#263238"/>
<path d="M223.614 60.8165H223.665C224.212 60.8165 224.655 60.4045 224.655 59.8962V59.444C224.655 58.9357 224.212 58.5236 223.665 58.5236H223.614C223.067 58.5236 222.624 58.9357 222.624 59.444V59.8962C222.624 60.4045 223.067 60.8165 223.614 60.8165Z" fill="#263238"/>
<path d="M255.36 59.7738H253.827C253.35 59.7738 252.963 60.1335 252.963 60.5771V61.0613C252.963 61.5049 253.35 61.8646 253.827 61.8646H255.36C255.837 61.8646 256.223 61.5049 256.223 61.0613V60.5771C256.223 60.1335 255.837 59.7738 255.36 59.7738Z" fill="#263238"/>
<path d="M251.167 59.7738H249.634C249.157 59.7738 248.77 60.1335 248.77 60.5771V61.0613C248.77 61.5049 249.157 61.8646 249.634 61.8646H251.167C251.644 61.8646 252.03 61.5049 252.03 61.0613V60.5771C252.03 60.1335 251.644 59.7738 251.167 59.7738Z" fill="#263238"/>
<path d="M246.974 59.7738H245.441C244.964 59.7738 244.577 60.1335 244.577 60.5771V61.0613C244.577 61.5049 244.964 61.8646 245.441 61.8646H246.974C247.451 61.8646 247.838 61.5049 247.838 61.0613V60.5771C247.838 60.1335 247.451 59.7738 246.974 59.7738Z" fill="#263238"/>
<path d="M242.781 59.7738H241.248C240.771 59.7738 240.385 60.1335 240.385 60.5771V61.0613C240.385 61.5049 240.771 61.8646 241.248 61.8646H242.781C243.258 61.8646 243.645 61.5049 243.645 61.0613V60.5771C243.645 60.1335 243.258 59.7738 242.781 59.7738Z" fill="#263238"/>
<path d="M238.588 59.7738H237.055C236.578 59.7738 236.192 60.1335 236.192 60.5771V61.0613C236.192 61.5049 236.578 61.8646 237.055 61.8646H238.588C239.065 61.8646 239.452 61.5049 239.452 61.0613V60.5771C239.452 60.1335 239.065 59.7738 238.588 59.7738Z" fill="#263238"/>
<path d="M234.396 59.7738H232.863C232.386 59.7738 231.999 60.1335 231.999 60.5771V61.0613C231.999 61.5049 232.386 61.8646 232.863 61.8646H234.396C234.873 61.8646 235.259 61.5049 235.259 61.0613V60.5771C235.259 60.1335 234.873 59.7738 234.396 59.7738Z" fill="#263238"/>
<path d="M230.203 59.7738H228.67C228.193 59.7738 227.806 60.1335 227.806 60.5771V61.0613C227.806 61.5049 228.193 61.8646 228.67 61.8646H230.203C230.68 61.8646 231.067 61.5049 231.067 61.0613V60.5771C231.067 60.1335 230.68 59.7738 230.203 59.7738Z" fill="#263238"/>
<path d="M254.244 59.162H254.936V58.5183H254.244V59.162Z" fill="#263238"/>
<path d="M229.093 59.162H229.785V58.5183H229.093V59.162Z" fill="#263238"/>
<path d="M261.171 64.8065H257.928V57.8373H261.171V64.8065ZM258.214 64.5405H260.885V58.1033H258.214V64.5405Z" fill="#DCD9D9"/>
<path d="M265.81 64.8065H262.561V57.8373H265.81V64.8065ZM262.847 64.5405H265.524V58.1033H262.847V64.5405Z" fill="#DCD9D9"/>
<path d="M225.267 64.8065H222.018V57.8373H225.267V64.8065ZM222.304 64.5405H224.981V58.1033H222.304V64.5405Z" fill="#DCD9D9"/>
<path d="M169.251 57.2362H121.323V66.876H169.251V57.2362Z" fill="#407BFF"/>
<path opacity="0.5" d="M169.251 57.2362H121.323V66.876H169.251V57.2362Z" fill="#DCD9D9"/>
<path opacity="0.3" d="M169.251 58.6566L121.323 58.6034V57.2362L169.251 57.2894V58.6566Z" fill="#DCD9D9"/>
<path d="M169.251 64.6735H121.323V66.876H169.251V64.6735Z" fill="#407BFF"/>
<path d="M125.504 58.5236H124.417V60.8165H125.504V58.5236Z" fill="#263238"/>
<path d="M129.657 58.5236H129.605C129.059 58.5236 128.616 58.9357 128.616 59.444V59.8962C128.616 60.4045 129.059 60.8165 129.605 60.8165H129.657C130.203 60.8165 130.646 60.4045 130.646 59.8962V59.444C130.646 58.9357 130.203 58.5236 129.657 58.5236Z" fill="#263238"/>
<path d="M165.584 58.5236H165.533C164.986 58.5236 164.543 58.9357 164.543 59.444V59.8962C164.543 60.4045 164.986 60.8165 165.533 60.8165H165.584C166.131 60.8165 166.574 60.4045 166.574 59.8962V59.444C166.574 58.9357 166.131 58.5236 165.584 58.5236Z" fill="#263238"/>
<path d="M135.371 59.7738H133.838C133.361 59.7738 132.974 60.1335 132.974 60.5771V61.0613C132.974 61.5049 133.361 61.8646 133.838 61.8646H135.371C135.848 61.8646 136.235 61.5049 136.235 61.0613V60.5771C136.235 60.1335 135.848 59.7738 135.371 59.7738Z" fill="#263238"/>
<path d="M139.564 59.7738H138.031C137.554 59.7738 137.167 60.1335 137.167 60.5771V61.0613C137.167 61.5049 137.554 61.8646 138.031 61.8646H139.564C140.041 61.8646 140.427 61.5049 140.427 61.0613V60.5771C140.427 60.1335 140.041 59.7738 139.564 59.7738Z" fill="#263238"/>
<path d="M143.757 59.7738H142.224C141.747 59.7738 141.36 60.1335 141.36 60.5771V61.0613C141.36 61.5049 141.747 61.8646 142.224 61.8646H143.757C144.234 61.8646 144.62 61.5049 144.62 61.0613V60.5771C144.62 60.1335 144.234 59.7738 143.757 59.7738Z" fill="#263238"/>
<path d="M147.949 59.7738H146.416C145.939 59.7738 145.552 60.1335 145.552 60.5771V61.0613C145.552 61.5049 145.939 61.8646 146.416 61.8646H147.949C148.426 61.8646 148.813 61.5049 148.813 61.0613V60.5771C148.813 60.1335 148.426 59.7738 147.949 59.7738Z" fill="#263238"/>
<path d="M152.142 59.7738H150.609C150.132 59.7738 149.745 60.1335 149.745 60.5771V61.0613C149.745 61.5049 150.132 61.8646 150.609 61.8646H152.142C152.619 61.8646 153.006 61.5049 153.006 61.0613V60.5771C153.006 60.1335 152.619 59.7738 152.142 59.7738Z" fill="#263238"/>
<path d="M156.335 59.7738H154.802C154.325 59.7738 153.938 60.1335 153.938 60.5771V61.0613C153.938 61.5049 154.325 61.8646 154.802 61.8646H156.335C156.812 61.8646 157.199 61.5049 157.199 61.0613V60.5771C157.199 60.1335 156.812 59.7738 156.335 59.7738Z" fill="#263238"/>
<path d="M160.528 59.7738H158.995C158.518 59.7738 158.131 60.1335 158.131 60.5771V61.0613C158.131 61.5049 158.518 61.8646 158.995 61.8646H160.528C161.005 61.8646 161.391 61.5049 161.391 61.0613V60.5771C161.391 60.1335 161.005 59.7738 160.528 59.7738Z" fill="#263238"/>
<path d="M134.953 58.5236H134.261V59.1673H134.953V58.5236Z" fill="#263238"/>
<path d="M160.104 58.5236H159.412V59.1673H160.104V58.5236Z" fill="#263238"/>
<path d="M131.276 64.8065H128.027V57.8373H131.276V64.8065ZM128.313 64.5405H130.99V58.1033H128.313V64.5405Z" fill="#DCD9D9"/>
<path d="M126.637 64.8065H123.388V57.8373H126.637V64.8065ZM123.674 64.5405H126.351V58.1033H123.668L123.674 64.5405Z" fill="#DCD9D9"/>
<path d="M167.18 64.8065H163.931V57.8373H167.18V64.8065ZM164.217 64.5405H166.894V58.1033H164.217V64.5405Z" fill="#DCD9D9"/>
<path d="M218.465 57.2362H170.538V66.876H218.465V57.2362Z" fill="#407BFF"/>
<path opacity="0.5" d="M218.465 57.2362H170.538V66.876H218.465V57.2362Z" fill="#DCD9D9"/>
<path opacity="0.3" d="M218.448 58.6566L170.521 58.6034V57.2362L218.448 57.2894V58.6566Z" fill="#DCD9D9"/>
<path d="M218.465 64.6735H170.538V66.876H218.465V64.6735Z" fill="#407BFF"/>
<path d="M174.719 58.5236H173.632V60.8165H174.719V58.5236Z" fill="#263238"/>
<path d="M178.872 58.5236H178.82C178.274 58.5236 177.831 58.9357 177.831 59.444V59.8962C177.831 60.4045 178.274 60.8165 178.82 60.8165H178.872C179.418 60.8165 179.861 60.4045 179.861 59.8962V59.444C179.861 58.9357 179.418 58.5236 178.872 58.5236Z" fill="#263238"/>
<path d="M214.799 58.5236H214.747C214.201 58.5236 213.758 58.9357 213.758 59.444V59.8962C213.758 60.4045 214.201 60.8165 214.747 60.8165H214.799C215.345 60.8165 215.788 60.4045 215.788 59.8962V59.444C215.788 58.9357 215.345 58.5236 214.799 58.5236Z" fill="#263238"/>
<path d="M184.586 59.7738H183.053C182.576 59.7738 182.189 60.1335 182.189 60.5771V61.0613C182.189 61.5049 182.576 61.8646 183.053 61.8646H184.586C185.063 61.8646 185.45 61.5049 185.45 61.0613V60.5771C185.45 60.1335 185.063 59.7738 184.586 59.7738Z" fill="#263238"/>
<path d="M188.779 59.7738H187.246C186.769 59.7738 186.382 60.1335 186.382 60.5771V61.0613C186.382 61.5049 186.769 61.8646 187.246 61.8646H188.779C189.256 61.8646 189.642 61.5049 189.642 61.0613V60.5771C189.642 60.1335 189.256 59.7738 188.779 59.7738Z" fill="#263238"/>
<path d="M192.971 59.7738H191.438C190.961 59.7738 190.575 60.1335 190.575 60.5771V61.0613C190.575 61.5049 190.961 61.8646 191.438 61.8646H192.971C193.448 61.8646 193.835 61.5049 193.835 61.0613V60.5771C193.835 60.1335 193.448 59.7738 192.971 59.7738Z" fill="#263238"/>
<path d="M197.164 59.7738H195.631C195.154 59.7738 194.768 60.1335 194.768 60.5771V61.0613C194.768 61.5049 195.154 61.8646 195.631 61.8646H197.164C197.641 61.8646 198.028 61.5049 198.028 61.0613V60.5771C198.028 60.1335 197.641 59.7738 197.164 59.7738Z" fill="#263238"/>
<path d="M201.357 59.7738H199.824C199.347 59.7738 198.96 60.1335 198.96 60.5771V61.0613C198.96 61.5049 199.347 61.8646 199.824 61.8646H201.357C201.834 61.8646 202.221 61.5049 202.221 61.0613V60.5771C202.221 60.1335 201.834 59.7738 201.357 59.7738Z" fill="#263238"/>
<path d="M205.55 59.7738H204.017C203.54 59.7738 203.153 60.1335 203.153 60.5771V61.0613C203.153 61.5049 203.54 61.8646 204.017 61.8646H205.55C206.027 61.8646 206.413 61.5049 206.413 61.0613V60.5771C206.413 60.1335 206.027 59.7738 205.55 59.7738Z" fill="#263238"/>
<path d="M209.742 59.7738H208.209C207.732 59.7738 207.346 60.1335 207.346 60.5771V61.0613C207.346 61.5049 207.732 61.8646 208.209 61.8646H209.742C210.219 61.8646 210.606 61.5049 210.606 61.0613V60.5771C210.606 60.1335 210.219 59.7738 209.742 59.7738Z" fill="#263238"/>
<path d="M184.168 58.5236H183.476V59.1673H184.168V58.5236Z" fill="#263238"/>
<path d="M209.325 58.5236H208.633V59.1673H209.325V58.5236Z" fill="#263238"/>
<path d="M180.49 64.8065H177.241V57.8373H180.49V64.8065ZM177.527 64.5405H180.204V58.1033H177.527V64.5405Z" fill="#DCD9D9"/>
<path d="M175.851 64.8065H172.608V57.8373H175.851V64.8065ZM172.894 64.5405H175.565V58.1033H172.894V64.5405Z" fill="#DCD9D9"/>
<path d="M216.395 64.8065H213.152V57.8373H216.395V64.8065ZM213.438 64.5405H216.109V58.1033H213.438V64.5405Z" fill="#DCD9D9"/>
<path opacity="0.2" d="M63.3391 60.8857H67.0686L71.5302 58.5928H67.9208L63.3391 60.8857Z" fill="#DCD9D9"/>
<path opacity="0.2" d="M70.3804 60.8857L72.8972 59.3695C72.8972 59.3695 73.1603 59.976 71.8733 60.6463C71.5809 60.7979 71.2528 60.8801 70.9181 60.8857H70.3804Z" fill="#DCD9D9"/>
<path opacity="0.2" d="M276.695 60.8857H272.966L268.504 58.5928H272.113L276.695 60.8857Z" fill="#DCD9D9"/>
<path opacity="0.2" d="M269.654 60.8857L267.137 59.3695C267.137 59.3695 266.874 59.976 268.161 60.6463C268.453 60.7979 268.781 60.8801 269.116 60.8857H269.654Z" fill="#DCD9D9"/>
<path opacity="0.2" d="M76.3063 58.5236L75.2195 60.8165V58.5236H76.3063Z" fill="#DCD9D9"/>
<path opacity="0.2" d="M84.6404 61.8646L85.7501 59.7685L86.3392 59.7845L85.2925 61.8646H84.6404Z" fill="#DCD9D9"/>
<path opacity="0.2" d="M84.9492 59.7738L83.9368 61.5188C83.8316 61.3864 83.7754 61.2259 83.7766 61.0613V60.5771C83.7759 60.4715 83.7977 60.3667 83.8408 60.2689C83.884 60.1711 83.9476 60.0823 84.0279 60.0075C84.1083 59.9328 84.2038 59.8737 84.3089 59.8335C84.4141 59.7934 84.5267 59.7731 84.6403 59.7738H84.9492Z" fill="#DCD9D9"/>
<path opacity="0.2" d="M80.5791 58.5928L79.5667 60.3377C79.4615 60.2053 79.4053 60.0448 79.4065 59.8802V59.3961C79.4058 59.2904 79.4276 59.1856 79.4707 59.0878C79.5138 58.99 79.5774 58.9012 79.6578 58.8265C79.7381 58.7517 79.8337 58.6926 79.9388 58.6525C80.0439 58.6124 80.1566 58.5921 80.2702 58.5928H80.5791Z" fill="#DCD9D9"/>
<path opacity="0.2" d="M116.506 58.5928L115.494 60.3377C115.389 60.2053 115.333 60.0448 115.334 59.8802V59.3961C115.333 59.2904 115.355 59.1856 115.398 59.0878C115.441 58.99 115.505 58.9012 115.585 58.8265C115.665 58.7517 115.761 58.6926 115.866 58.6525C115.971 58.6124 116.084 58.5921 116.197 58.5928H116.506Z" fill="#DCD9D9"/>
<path opacity="0.2" d="M88.833 61.8646L89.9427 59.7685L90.5318 59.7845L89.4794 61.8646H88.833Z" fill="#DCD9D9"/>
<path opacity="0.2" d="M89.1419 59.7738L88.1294 61.5188C88.0242 61.3864 87.968 61.2259 87.9693 61.0613V60.5771C87.9685 60.4715 87.9903 60.3667 88.0335 60.2689C88.0766 60.1711 88.1402 60.0823 88.2205 60.0075C88.3009 59.9328 88.3964 59.8737 88.5016 59.8335C88.6067 59.7934 88.7193 59.7731 88.833 59.7738H89.1419Z" fill="#DCD9D9"/>
<path opacity="0.2" d="M93.02 61.8646L94.1354 59.7685L94.7246 59.7845L93.6721 61.8646H93.02Z" fill="#DCD9D9"/>
<path opacity="0.2" d="M93.3518 59.7738L92.3394 61.5188C92.2342 61.3864 92.178 61.2259 92.1792 61.0613V60.5771C92.1785 60.4715 92.2003 60.3667 92.2434 60.2689C92.2866 60.1711 92.3501 60.0823 92.4305 60.0075C92.5109 59.9328 92.6064 59.8737 92.7115 59.8335C92.8166 59.7934 92.9293 59.7731 93.0429 59.7738H93.3518Z" fill="#DCD9D9"/>
<path opacity="0.2" d="M97.2129 61.8646L98.3283 59.7685L98.9175 59.7845L97.865 61.8646H97.2129Z" fill="#DCD9D9"/>
<path opacity="0.2" d="M97.5276 59.7738L96.5152 61.5188C96.41 61.3864 96.3538 61.2259 96.355 61.0613V60.5771C96.3542 60.4715 96.3761 60.3667 96.4192 60.2689C96.4623 60.1711 96.5259 60.0823 96.6063 60.0075C96.6866 59.9328 96.7822 59.8737 96.8873 59.8335C96.9924 59.7934 97.1051 59.7731 97.2187 59.7738H97.5276Z" fill="#DCD9D9"/>
<path opacity="0.2" d="M101.406 61.8646L102.521 59.7685L103.11 59.7845L102.058 61.8646H101.406Z" fill="#DCD9D9"/>
<path opacity="0.2" d="M101.72 59.7738L100.708 61.5188C100.6 61.3875 100.544 61.2262 100.548 61.0613V60.5771C100.547 60.4715 100.569 60.3667 100.612 60.2689C100.655 60.1711 100.718 60.0823 100.799 60.0075C100.879 59.9328 100.975 59.8737 101.08 59.8335C101.185 59.7934 101.298 59.7731 101.411 59.7738H101.72Z" fill="#DCD9D9"/>
<path opacity="0.2" d="M105.495 61.8646L106.611 59.7685L107.2 59.7845L106.147 61.8646H105.495Z" fill="#DCD9D9"/>
<path opacity="0.2" d="M105.804 59.7738L104.792 61.5188C104.687 61.3864 104.63 61.2259 104.632 61.0613V60.5771C104.631 60.4715 104.653 60.3667 104.696 60.2689C104.739 60.1711 104.803 60.0823 104.883 60.0075C104.963 59.9328 105.059 59.8737 105.164 59.8335C105.269 59.7934 105.382 59.7731 105.495 59.7738H105.804Z" fill="#DCD9D9"/>
<path opacity="0.2" d="M109.797 61.8646L110.907 59.7685L111.496 59.7845L110.443 61.8646H109.797Z" fill="#DCD9D9"/>
<path opacity="0.2" d="M110.106 59.7738L109.093 61.5188C108.988 61.3864 108.932 61.2259 108.933 61.0613V60.5771C108.932 60.4715 108.954 60.3667 108.997 60.2689C109.04 60.1711 109.104 60.0823 109.184 60.0075C109.265 59.9328 109.36 59.8737 109.465 59.8335C109.571 59.7934 109.683 59.7731 109.797 59.7738H110.106Z" fill="#DCD9D9"/>
<path opacity="0.2" d="M125.441 58.5289L124.354 60.8272V58.5289H125.441Z" fill="#DCD9D9"/>
<path opacity="0.2" d="M133.775 61.8752L134.891 59.7791L135.474 59.7951L134.427 61.8752H133.775Z" fill="#DCD9D9"/>
<path opacity="0.2" d="M134.084 59.7844L133.072 61.5294C132.966 61.397 132.91 61.2365 132.911 61.0719V60.5878C132.911 60.4821 132.932 60.3773 132.976 60.2795C133.019 60.1817 133.082 60.0929 133.163 60.0182C133.243 59.9434 133.339 59.8843 133.444 59.8442C133.549 59.804 133.661 59.7837 133.775 59.7844H134.084Z" fill="#DCD9D9"/>
<path opacity="0.2" d="M129.714 58.5928L128.701 60.3377C128.596 60.2054 128.54 60.0448 128.541 59.8802V59.3961C128.54 59.1854 128.628 58.9826 128.787 58.8321C128.945 58.6816 129.161 58.5956 129.388 58.5928H129.714Z" fill="#DCD9D9"/>
<path opacity="0.2" d="M165.641 58.5928L164.629 60.3377C164.524 60.2053 164.468 60.0448 164.469 59.8802V59.3961C164.468 59.2904 164.49 59.1856 164.533 59.0878C164.576 58.99 164.64 58.9012 164.72 58.8265C164.8 58.7517 164.896 58.6926 165.001 58.6525C165.106 58.6124 165.219 58.5921 165.332 58.5928H165.641Z" fill="#DCD9D9"/>
<path opacity="0.2" d="M137.968 61.8752L139.077 59.7791L139.667 59.7951L138.614 61.8752H137.968Z" fill="#DCD9D9"/>
<path opacity="0.2" d="M138.277 59.7844L137.264 61.5294C137.159 61.397 137.103 61.2365 137.104 61.0719V60.5878C137.104 60.4821 137.125 60.3773 137.168 60.2795C137.212 60.1817 137.275 60.0929 137.356 60.0182C137.436 59.9434 137.531 59.8843 137.637 59.8442C137.742 59.804 137.854 59.7837 137.968 59.7844H138.277Z" fill="#DCD9D9"/>
<path opacity="0.2" d="M142.161 61.8752L143.27 59.7791L143.859 59.7951L142.807 61.8752H142.161Z" fill="#DCD9D9"/>
<path opacity="0.2" d="M142.469 59.7844L141.457 61.5294C141.352 61.397 141.296 61.2365 141.297 61.0719V60.5878C141.296 60.4821 141.318 60.3773 141.361 60.2795C141.404 60.1817 141.468 60.0929 141.548 60.0182C141.629 59.9434 141.724 59.8843 141.829 59.8442C141.934 59.804 142.047 59.7837 142.161 59.7844H142.469Z" fill="#DCD9D9"/>
<path opacity="0.2" d="M146.354 61.8752L147.463 59.7791L148.052 59.7951L147 61.8752H146.354Z" fill="#DCD9D9"/>
<path opacity="0.2" d="M146.662 59.7844L145.65 61.5294C145.545 61.397 145.489 61.2365 145.49 61.0719V60.5878C145.489 60.4821 145.511 60.3773 145.554 60.2795C145.597 60.1817 145.661 60.0929 145.741 60.0182C145.821 59.9434 145.917 59.8843 146.022 59.8442C146.127 59.804 146.24 59.7837 146.353 59.7844H146.662Z" fill="#DCD9D9"/>
<path opacity="0.2" d="M150.546 61.8752L151.656 59.7791L152.245 59.7951L151.192 61.8752H150.546Z" fill="#DCD9D9"/>
<path opacity="0.2" d="M150.855 59.7844L149.843 61.5294C149.737 61.397 149.681 61.2365 149.682 61.0719V60.5878C149.682 60.4821 149.703 60.3773 149.747 60.2795C149.79 60.1817 149.853 60.0929 149.934 60.0182C150.014 59.9434 150.11 59.8843 150.215 59.8442C150.32 59.804 150.432 59.7837 150.546 59.7844H150.855Z" fill="#DCD9D9"/>
<path opacity="0.2" d="M154.63 61.8752L155.746 59.7791L156.335 59.7951L155.282 61.8752H154.63Z" fill="#DCD9D9"/>
<path opacity="0.2" d="M154.945 59.7844L153.932 61.5294C153.827 61.397 153.771 61.2365 153.772 61.0719V60.5878C153.771 60.4821 153.793 60.3773 153.836 60.2795C153.88 60.1817 153.943 60.0929 154.024 60.0182C154.104 59.9434 154.199 59.8843 154.305 59.8442C154.41 59.804 154.522 59.7837 154.636 59.7844H154.945Z" fill="#DCD9D9"/>
<path opacity="0.2" d="M158.932 61.8752L160.041 59.7791L160.63 59.7951L159.584 61.8752H158.932Z" fill="#DCD9D9"/>
<path opacity="0.2" d="M159.24 59.7844L158.228 61.5294C158.123 61.397 158.067 61.2365 158.068 61.0719V60.5878C158.067 60.4821 158.089 60.3773 158.132 60.2795C158.175 60.1817 158.239 60.0929 158.319 60.0182C158.4 59.9434 158.495 59.8843 158.6 59.8442C158.705 59.804 158.818 59.7837 158.932 59.7844H159.24Z" fill="#DCD9D9"/>
<path opacity="0.2" d="M174.713 58.5289L173.632 60.8272V58.5289H174.713Z" fill="#DCD9D9"/>
<path opacity="0.2" d="M183.047 61.8752L184.163 59.7791L184.752 59.7951L183.699 61.8752H183.047Z" fill="#DCD9D9"/>
<path opacity="0.2" d="M183.362 59.7844L182.349 61.5294C182.244 61.397 182.188 61.2365 182.189 61.0719V60.5878C182.188 60.4821 182.21 60.3773 182.253 60.2795C182.297 60.1817 182.36 60.0929 182.441 60.0182C182.521 59.9434 182.616 59.8843 182.722 59.8442C182.827 59.804 182.939 59.7837 183.053 59.7844H183.362Z" fill="#DCD9D9"/>
<path opacity="0.2" d="M178.992 58.5928L178.008 60.3484C177.903 60.216 177.846 60.0555 177.848 59.8909V59.4067C177.847 59.301 177.869 59.1963 177.912 59.0985C177.955 59.0007 178.019 58.9119 178.099 58.8371C178.179 58.7624 178.275 58.7032 178.38 58.6631C178.485 58.623 178.598 58.6027 178.711 58.6034L178.992 58.5928Z" fill="#DCD9D9"/>
<path opacity="0.2" d="M214.913 58.5928L213.901 60.3377C213.796 60.2054 213.74 60.0448 213.741 59.8802V59.3961C213.74 59.2895 213.762 59.1838 213.806 59.0853C213.85 58.9869 213.914 58.8975 213.996 58.8227C214.078 58.7478 214.174 58.6888 214.281 58.6494C214.387 58.6099 214.501 58.5906 214.616 58.5928H214.913Z" fill="#DCD9D9"/>
<path opacity="0.2" d="M187.24 61.8752L188.355 59.7791L188.945 59.7951L187.892 61.8752H187.24Z" fill="#DCD9D9"/>
<path opacity="0.2" d="M187.549 59.7844L186.536 61.5294C186.431 61.397 186.375 61.2365 186.376 61.0719V60.5878C186.375 60.4821 186.397 60.3773 186.44 60.2795C186.484 60.1817 186.547 60.0929 186.628 60.0182C186.708 59.9434 186.803 59.8843 186.909 59.8442C187.014 59.804 187.126 59.7837 187.24 59.7844H187.549Z" fill="#DCD9D9"/>
<path opacity="0.2" d="M191.433 61.8752L192.548 59.7791L193.137 59.7951L192.085 61.8752H191.433Z" fill="#DCD9D9"/>
<path opacity="0.2" d="M191.736 59.7844L190.723 61.5294C190.618 61.397 190.562 61.2365 190.563 61.0719V60.5878C190.562 60.4821 190.584 60.3773 190.627 60.2795C190.671 60.1817 190.734 60.0929 190.815 60.0182C190.895 59.9434 190.99 59.8843 191.096 59.8442C191.201 59.804 191.313 59.7837 191.427 59.7844H191.736Z" fill="#DCD9D9"/>
<path opacity="0.2" d="M195.625 61.8752L196.741 59.7791L197.324 59.7951L196.278 61.8752H195.625Z" fill="#DCD9D9"/>
<path opacity="0.2" d="M195.934 59.7844L194.922 61.5294C194.817 61.397 194.76 61.2365 194.762 61.0719V60.5878C194.761 60.4821 194.783 60.3773 194.826 60.2795C194.869 60.1817 194.933 60.0929 195.013 60.0182C195.093 59.9434 195.189 59.8843 195.294 59.8442C195.399 59.804 195.512 59.7837 195.625 59.7844H195.934Z" fill="#DCD9D9"/>
<path opacity="0.2" d="M199.818 61.8752L200.928 59.7791L201.517 59.7951L200.47 61.8752H199.818Z" fill="#DCD9D9"/>
<path opacity="0.2" d="M200.127 59.7844L199.115 61.5294C199.01 61.397 198.953 61.2365 198.955 61.0719V60.5878C198.954 60.4821 198.976 60.3773 199.019 60.2795C199.062 60.1817 199.126 60.0929 199.206 60.0182C199.286 59.9434 199.382 59.8843 199.487 59.8442C199.592 59.804 199.705 59.7837 199.818 59.7844H200.127Z" fill="#DCD9D9"/>
<path opacity="0.2" d="M203.908 61.8752L205.018 59.7791L205.607 59.7951L204.56 61.8752H203.908Z" fill="#DCD9D9"/>
<path opacity="0.2" d="M204.217 59.7844L203.205 61.5294C203.099 61.397 203.043 61.2365 203.044 61.0719V60.5878C203.044 60.4821 203.066 60.3773 203.109 60.2795C203.152 60.1817 203.215 60.0929 203.296 60.0182C203.376 59.9434 203.472 59.8843 203.577 59.8442C203.682 59.804 203.795 59.7837 203.908 59.7844H204.217Z" fill="#DCD9D9"/>
<path opacity="0.2" d="M208.204 61.8752L209.319 59.7791L209.908 59.7951L208.856 61.8752H208.204Z" fill="#DCD9D9"/>
<path opacity="0.2" d="M208.518 59.7844L207.506 61.5294C207.401 61.397 207.344 61.2365 207.346 61.0719V60.5878C207.345 60.4821 207.367 60.3773 207.41 60.2795C207.453 60.1817 207.517 60.0929 207.597 60.0182C207.677 59.9434 207.773 59.8843 207.878 59.8442C207.983 59.804 208.096 59.7837 208.209 59.7844H208.518Z" fill="#DCD9D9"/>
<path opacity="0.2" d="M264.752 58.513L263.665 60.8059V58.513H264.752Z" fill="#DCD9D9"/>
<path opacity="0.2" d="M228.698 61.8539L229.814 59.7632L230.403 59.7791L229.351 61.8539H228.698Z" fill="#DCD9D9"/>
<path opacity="0.2" d="M229.007 59.7632L227.995 61.5081C227.89 61.3758 227.833 61.2152 227.835 61.0506V60.5665C227.834 60.4608 227.856 60.356 227.899 60.2582C227.942 60.1605 228.006 60.0716 228.086 59.9969C228.166 59.9221 228.262 59.863 228.367 59.8229C228.472 59.7827 228.585 59.7625 228.698 59.7632H229.007Z" fill="#DCD9D9"/>
<path opacity="0.2" d="M223.951 58.5928L222.938 60.3377C222.833 60.2053 222.777 60.0448 222.778 59.8802V59.3961C222.778 59.2904 222.799 59.1856 222.843 59.0878C222.886 58.99 222.949 58.9012 223.03 58.8265C223.11 58.7517 223.206 58.6926 223.311 58.6525C223.416 58.6124 223.528 58.5921 223.642 58.5928H223.951Z" fill="#DCD9D9"/>
<path opacity="0.2" d="M259.764 58.5928L258.751 60.3377C258.646 60.2053 258.59 60.0448 258.591 59.8802V59.3961C258.591 59.2904 258.612 59.1856 258.656 59.0878C258.699 58.99 258.762 58.9012 258.843 58.8265C258.923 58.7517 259.018 58.6926 259.124 58.6525C259.229 58.6124 259.341 58.5921 259.455 58.5928H259.764Z" fill="#DCD9D9"/>
<path opacity="0.2" d="M232.891 61.8539L234.001 59.7632L234.59 59.7791L233.543 61.8539H232.891Z" fill="#DCD9D9"/>
<path opacity="0.2" d="M233.2 59.7632L232.188 61.5081C232.083 61.3758 232.026 61.2152 232.028 61.0506V60.5665C232.027 60.4585 232.049 60.3515 232.094 60.2519C232.139 60.1523 232.205 60.0623 232.289 59.9871C232.372 59.912 232.471 59.8535 232.58 59.815C232.688 59.7765 232.804 59.7589 232.92 59.7632H233.2Z" fill="#DCD9D9"/>
<path opacity="0.2" d="M237.084 61.8539L238.194 59.7632L238.783 59.7791L237.736 61.8539H237.084Z" fill="#DCD9D9"/>
<path opacity="0.2" d="M237.393 59.7632L236.38 61.5081C236.275 61.3758 236.219 61.2152 236.22 61.0506V60.5665C236.219 60.4608 236.241 60.356 236.284 60.2582C236.328 60.1605 236.391 60.0716 236.472 59.9969C236.552 59.9221 236.647 59.863 236.753 59.8229C236.858 59.7827 236.97 59.7625 237.084 59.7632H237.393Z" fill="#DCD9D9"/>
<path opacity="0.2" d="M241.277 61.8539L242.387 59.7632L242.976 59.7791L241.923 61.8539H241.277Z" fill="#DCD9D9"/>
<path opacity="0.2" d="M241.586 59.7632L240.573 61.5081C240.468 61.3758 240.412 61.2152 240.413 61.0506V60.5665C240.412 60.4608 240.434 60.356 240.477 60.2582C240.52 60.1605 240.584 60.0716 240.664 59.9969C240.745 59.9221 240.84 59.863 240.945 59.8229C241.051 59.7827 241.163 59.7625 241.277 59.7632H241.586Z" fill="#DCD9D9"/>
<path opacity="0.2" d="M245.469 61.8539L246.579 59.7632L247.168 59.7791L246.116 61.8539H245.469Z" fill="#DCD9D9"/>
<path opacity="0.2" d="M245.779 59.7632L244.766 61.5081C244.661 61.3758 244.605 61.2152 244.606 61.0506V60.5665C244.605 60.4608 244.627 60.356 244.67 60.2582C244.713 60.1605 244.777 60.0716 244.857 59.9969C244.938 59.9221 245.033 59.863 245.138 59.8229C245.243 59.7827 245.356 59.7625 245.47 59.7632H245.779Z" fill="#DCD9D9"/>
<path opacity="0.2" d="M249.554 61.8539L250.669 59.7632L251.258 59.7791L250.206 61.8539H249.554Z" fill="#DCD9D9"/>
<path opacity="0.2" d="M249.868 59.7632L248.856 61.5081C248.751 61.3758 248.694 61.2152 248.696 61.0506V60.5665C248.695 60.4608 248.717 60.356 248.76 60.2582C248.803 60.1605 248.867 60.0716 248.947 59.9969C249.027 59.9221 249.123 59.863 249.228 59.8229C249.333 59.7827 249.446 59.7625 249.559 59.7632H249.868Z" fill="#DCD9D9"/>
<path opacity="0.2" d="M253.855 61.8539L254.97 59.7632L255.554 59.7791L254.507 61.8539H253.855Z" fill="#DCD9D9"/>
<path opacity="0.2" d="M254.164 59.7632L253.152 61.5081C253.046 61.3758 252.99 61.2152 252.991 61.0506V60.5665C252.991 60.4608 253.013 60.356 253.056 60.2582C253.099 60.1605 253.162 60.0716 253.243 59.9969C253.323 59.9221 253.419 59.863 253.524 59.8229C253.629 59.7827 253.742 59.7625 253.855 59.7632H254.164Z" fill="#DCD9D9"/>
<path d="M79.7041 61.7901H79.4124V62.6253H79.7041V61.7901Z" fill="#263238"/>
<path d="M115.488 61.7901H115.197V62.6253H115.488V61.7901Z" fill="#263238"/>
<path d="M128.919 61.7901H128.627V62.6253H128.919V61.7901Z" fill="#263238"/>
<path d="M164.697 61.7901H164.406V62.6253H164.697V61.7901Z" fill="#263238"/>
<path d="M178.191 61.7901H177.899V62.6253H178.191V61.7901Z" fill="#263238"/>
<path d="M213.975 61.7901H213.684V62.6253H213.975V61.7901Z" fill="#263238"/>
<path d="M222.938 61.7901H222.647V62.6253H222.938V61.7901Z" fill="#263238"/>
<path d="M258.723 61.7901H258.431V62.6253H258.723V61.7901Z" fill="#263238"/>
<path opacity="0.3" d="M219.764 57.1936V58.5396H272.628L272.542 58.5076C270.344 57.7342 268.027 57.2907 265.678 57.1936H219.764Z" fill="#DCD9D9"/>
<path d="M288.564 67.424H51.6702V72.1375H288.564V67.424Z" fill="#263238"/>
<path d="M117.136 72.1322V111.474H108.796V95.0773C108.796 82.9424 98.5913 72.7333 85.5497 72.2865C85.1665 72.2865 84.789 72.2865 84.4057 72.2865C84.0225 72.2865 83.6335 72.2865 83.2617 72.2865C70.2201 72.7227 60.0156 82.9265 60.0156 95.0827V111.474H51.6702V72.1322H53.1402V69.6052H112.056V72.1322H117.136Z" fill="#263238"/>
<path opacity="0.5" d="M117.136 72.1322V111.474H108.796V95.0773C108.796 82.9424 98.5913 72.7333 85.5497 72.2865C85.1665 72.2865 84.789 72.2865 84.4057 72.2865C84.0225 72.2865 83.6335 72.2865 83.2617 72.2865C70.2201 72.7227 60.0156 82.9265 60.0156 95.0827V111.474H51.6702V72.1322H53.1402V69.6052H112.056V72.1322H117.136Z" fill="#DCD9D9"/>
<path d="M174.204 72.1322V111.474H165.87V95.0773C165.87 82.9424 155.666 72.7333 142.618 72.2865C142.241 72.2865 141.863 72.2865 141.474 72.2865C141.085 72.2865 140.696 72.2865 140.33 72.2865C127.289 72.7227 117.09 82.9265 117.09 95.0827V111.474H108.739V72.1322H113.887V69.6052H169.113V72.1322H174.204Z" fill="#263238"/>
<path opacity="0.5" d="M174.204 72.1322V111.474H165.87V95.0773C165.87 82.9424 155.666 72.7333 142.618 72.2865C142.241 72.2865 141.863 72.2865 141.474 72.2865C141.085 72.2865 140.696 72.2865 140.33 72.2865C127.289 72.7227 117.09 82.9265 117.09 95.0827V111.474H108.739V72.1322H113.887V69.6052H169.113V72.1322H174.204Z" fill="#DCD9D9"/>
<path d="M231.393 72.1322V111.474H223.059V95.0773C223.059 82.9424 212.854 72.7333 199.807 72.2865C199.429 72.2865 199.052 72.2865 198.663 72.2865C198.274 72.2865 197.885 72.2865 197.519 72.2865C184.477 72.7227 174.278 82.9265 174.278 95.0827V111.474H165.927V72.1322H171.075V69.6052H226.285V72.1322H231.393Z" fill="#263238"/>
<path opacity="0.5" d="M231.393 72.1322V111.474H223.059V95.0773C223.059 82.9424 212.854 72.7333 199.807 72.2865C199.429 72.2865 199.052 72.2865 198.663 72.2865C198.274 72.2865 197.885 72.2865 197.519 72.2865C184.477 72.7227 174.278 82.9265 174.278 95.0827V111.474H165.927V72.1322H171.075V69.6052H226.285V72.1322H231.393Z" fill="#DCD9D9"/>
<path d="M288.518 72.1322V111.474H280.184V95.0773C280.184 82.9424 269.98 72.7333 256.933 72.2865C256.555 72.2865 256.178 72.2865 255.789 72.2865C255.4 72.2865 255.011 72.2865 254.645 72.2865C241.603 72.7227 231.404 82.9265 231.404 95.0827V111.474H223.053V72.1322H228.201V69.6052H287.174V72.1322H288.518Z" fill="#263238"/>
<path opacity="0.5" d="M288.518 72.1322V111.474H280.184V95.0773C280.184 82.9424 269.98 72.7333 256.933 72.2865C256.555 72.2865 256.178 72.2865 255.789 72.2865C255.4 72.2865 255.011 72.2865 254.645 72.2865C241.603 72.7227 231.404 82.9265 231.404 95.0827V111.474H223.053V72.1322H228.201V69.6052H287.174V72.1322H288.518Z" fill="#DCD9D9"/>
<path opacity="0.2" d="M112.039 69.6052H53.1404V70.8713H112.039V69.6052Z" fill="#0A0A0A"/>
<path opacity="0.2" d="M169.228 69.6052H113.721V70.8713H169.228V69.6052Z" fill="#0A0A0A"/>
<path opacity="0.2" d="M226.302 69.6052H170.858V70.8713H226.302V69.6052Z" fill="#0A0A0A"/>
<path opacity="0.2" d="M287.18 69.6052H228.035V70.8713H287.18V69.6052Z" fill="#0A0A0A"/>
<path d="M117.936 89.3105H107.944V93.4813H117.936V89.3105Z" fill="#263238"/>
<path opacity="0.6" d="M117.936 89.3105H107.944V93.4813H117.936V89.3105Z" fill="#DCD9D9"/>
<path d="M60.9653 89.3105H50.9724V93.4813H60.9653V89.3105Z" fill="#263238"/>
<path opacity="0.6" d="M60.9653 89.3105H50.9724V93.4813H60.9653V89.3105Z" fill="#DCD9D9"/>
<path d="M232.142 89.3105H222.149V93.4813H232.142V89.3105Z" fill="#263238"/>
<path opacity="0.6" d="M232.142 89.3105H222.149V93.4813H232.142V89.3105Z" fill="#DCD9D9"/>
<path d="M289.005 89.3105H279.012V93.4813H289.005V89.3105Z" fill="#263238"/>
<path opacity="0.6" d="M289.005 89.3105H279.012V93.4813H289.005V89.3105Z" fill="#DCD9D9"/>
<path d="M174.942 89.3105H164.949V93.4813H174.942V89.3105Z" fill="#263238"/>
<path opacity="0.6" d="M174.942 89.3105H164.949V93.4813H174.942V89.3105Z" fill="#DCD9D9"/>
<g opacity="0.2">
<path d="M110.998 78.9365H107.394C106.579 78.9365 105.919 79.551 105.919 80.309V80.607C105.919 81.365 106.579 81.9795 107.394 81.9795H110.998C111.813 81.9795 112.474 81.365 112.474 80.607V80.309C112.474 79.551 111.813 78.9365 110.998 78.9365Z" fill="#0A0A0A"/>
<path d="M118.486 78.9365H114.882C114.067 78.9365 113.406 79.551 113.406 80.309V80.607C113.406 81.365 114.067 81.9795 114.882 81.9795H118.486C119.301 81.9795 119.961 81.365 119.961 80.607V80.309C119.961 79.551 119.301 78.9365 118.486 78.9365Z" fill="#0A0A0A"/>
<path d="M114.327 82.9371H111.553C110.738 82.9371 110.077 83.5516 110.077 84.3097V84.6076C110.077 85.3656 110.738 85.9801 111.553 85.9801H114.327C115.142 85.9801 115.803 85.3656 115.803 84.6076V84.3097C115.803 83.5516 115.142 82.9371 114.327 82.9371Z" fill="#0A0A0A"/>
<path d="M175.823 77.4149H172.219C171.404 77.4149 170.743 78.0295 170.743 78.7875V79.0854C170.743 79.8435 171.404 80.458 172.219 80.458H175.823C176.638 80.458 177.299 79.8435 177.299 79.0854V78.7875C177.299 78.0295 176.638 77.4149 175.823 77.4149Z" fill="#0A0A0A"/>
<path d="M171.665 81.4103H168.89C168.075 81.4103 167.415 82.0248 167.415 82.7828V83.0807C167.415 83.8388 168.075 84.4533 168.89 84.4533H171.665C172.48 84.4533 173.14 83.8388 173.14 83.0807V82.7828C173.14 82.0248 172.48 81.4103 171.665 81.4103Z" fill="#0A0A0A"/>
<path d="M225.198 77.4149H221.594C220.779 77.4149 220.119 78.0295 220.119 78.7875V79.0854C220.119 79.8435 220.779 80.458 221.594 80.458H225.198C226.013 80.458 226.674 79.8435 226.674 79.0854V78.7875C226.674 78.0295 226.013 77.4149 225.198 77.4149Z" fill="#0A0A0A"/>
<path d="M232.691 77.4149H229.088C228.273 77.4149 227.612 78.0295 227.612 78.7875V79.0854C227.612 79.8435 228.273 80.458 229.088 80.458H232.691C233.506 80.458 234.167 79.8435 234.167 79.0854V78.7875C234.167 78.0295 233.506 77.4149 232.691 77.4149Z" fill="#0A0A0A"/>
<path d="M228.533 81.4103H225.758C224.943 81.4103 224.283 82.0248 224.283 82.7828V83.0807C224.283 83.8388 224.943 84.4533 225.758 84.4533H228.533C229.348 84.4533 230.008 83.8388 230.008 83.0807V82.7828C230.008 82.0248 229.348 81.4103 228.533 81.4103Z" fill="#0A0A0A"/>
<path d="M282.238 77.4149H278.634C277.819 77.4149 277.158 78.0295 277.158 78.7875V79.0854C277.158 79.8435 277.819 80.458 278.634 80.458H282.238C283.053 80.458 283.714 79.8435 283.714 79.0854V78.7875C283.714 78.0295 283.053 77.4149 282.238 77.4149Z" fill="#0A0A0A"/>
<path d="M285.572 81.4103H282.798C281.983 81.4103 281.323 82.0248 281.323 82.7828V83.0807C281.323 83.8388 281.983 84.4533 282.798 84.4533H285.572C286.388 84.4533 287.048 83.8388 287.048 83.0807V82.7828C287.048 82.0248 286.388 81.4103 285.572 81.4103Z" fill="#0A0A0A"/>
<path d="M57.5561 80.458H61.1597C61.9748 80.458 62.6355 79.8435 62.6355 79.0854V78.7875C62.6355 78.0295 61.9748 77.4149 61.1597 77.4149H57.5561C56.7411 77.4149 56.0804 78.0295 56.0804 78.7875V79.0854C56.0804 79.8435 56.7411 80.458 57.5561 80.458Z" fill="#0A0A0A"/>
<path d="M54.2215 84.4586H56.9957C57.8107 84.4586 58.4714 83.8441 58.4714 83.0861V82.7881C58.4714 82.0301 57.8107 81.4156 56.9957 81.4156H54.2215C53.4064 81.4156 52.7457 82.0301 52.7457 82.7881V83.0861C52.7457 83.8441 53.4064 84.4586 54.2215 84.4586Z" fill="#0A0A0A"/>
</g>
<path d="M171.802 46.2504H168.301V67.5038H171.802V46.2504Z" fill="#263238"/>
<path opacity="0.1" d="M171.802 46.2504H168.301V67.5038H171.802V46.2504Z" fill="#DCD9D9"/>
<path d="M1 98H340V125C340 128.314 337.314 131 334 131H7C3.68629 131 1 128.314 1 125V98Z" fill="#272727"/>
<path d="M227.24 110.215C227.56 109.928 228.074 109.928 228.394 110.215L233.809 115.087C234.064 115.315 234.064 115.685 233.809 115.913L228.394 120.785C228.074 121.072 227.56 121.072 227.24 120.785C226.921 120.497 226.921 120.034 227.24 119.747L231.959 115.497L227.234 111.247C226.921 110.966 226.921 110.497 227.24 110.215Z" fill="url(#paint0_linear_95_2)"/>
<path d="M98.8691 118.959V121H91.3735V118.959H98.8691ZM92.0913 106.07V121H89.5176V106.07H92.0913ZM103.258 109.905V121H100.776V109.905H103.258ZM100.612 106.993C100.612 106.617 100.735 106.306 100.981 106.06C101.234 105.807 101.583 105.681 102.027 105.681C102.465 105.681 102.81 105.807 103.063 106.06C103.316 106.306 103.442 106.617 103.442 106.993C103.442 107.362 103.316 107.67 103.063 107.916C102.81 108.162 102.465 108.285 102.027 108.285C101.583 108.285 101.234 108.162 100.981 107.916C100.735 107.67 100.612 107.362 100.612 106.993ZM109.574 119.042L112.292 109.905H114.855L111 121H109.4L109.574 119.042ZM107.493 109.905L110.261 119.083L110.395 121H108.795L104.919 109.905H107.493ZM121.13 121.205C120.31 121.205 119.568 121.072 118.905 120.805C118.249 120.532 117.688 120.152 117.224 119.667C116.766 119.182 116.414 118.611 116.167 117.955C115.921 117.298 115.798 116.591 115.798 115.832V115.422C115.798 114.554 115.925 113.768 116.178 113.063C116.431 112.359 116.783 111.758 117.234 111.259C117.685 110.753 118.218 110.367 118.833 110.1C119.449 109.833 120.115 109.7 120.833 109.7C121.626 109.7 122.32 109.833 122.915 110.1C123.509 110.367 124.001 110.743 124.391 111.228C124.788 111.707 125.082 112.277 125.273 112.94C125.471 113.604 125.57 114.335 125.57 115.135V116.191H116.998V114.417H123.13V114.222C123.116 113.778 123.027 113.361 122.863 112.971C122.706 112.582 122.463 112.267 122.135 112.028C121.807 111.789 121.37 111.669 120.823 111.669C120.413 111.669 120.047 111.758 119.726 111.936C119.411 112.106 119.148 112.356 118.936 112.684C118.724 113.012 118.56 113.409 118.444 113.874C118.334 114.332 118.28 114.848 118.28 115.422V115.832C118.28 116.317 118.345 116.769 118.475 117.186C118.611 117.596 118.81 117.955 119.069 118.262C119.329 118.57 119.644 118.812 120.013 118.99C120.382 119.161 120.802 119.247 121.274 119.247C121.869 119.247 122.398 119.127 122.863 118.888C123.328 118.648 123.731 118.31 124.073 117.873L125.375 119.134C125.136 119.482 124.825 119.817 124.442 120.139C124.06 120.453 123.591 120.709 123.038 120.908C122.491 121.106 121.855 121.205 121.13 121.205ZM138.624 106.07V121H136.07V106.07H138.624ZM143.31 106.07V108.121H131.425V106.07H143.31ZM146.775 112.018V121H144.304V109.905H146.663L146.775 112.018ZM150.169 109.833L150.149 112.13C149.999 112.103 149.834 112.083 149.657 112.069C149.486 112.055 149.315 112.048 149.144 112.048C148.72 112.048 148.348 112.11 148.026 112.233C147.705 112.349 147.435 112.52 147.216 112.746C147.004 112.964 146.84 113.231 146.724 113.545C146.608 113.86 146.54 114.212 146.519 114.602L145.955 114.643C145.955 113.945 146.023 113.299 146.16 112.705C146.297 112.11 146.502 111.587 146.775 111.136C147.056 110.685 147.404 110.333 147.821 110.08C148.245 109.827 148.734 109.7 149.288 109.7C149.438 109.7 149.599 109.714 149.77 109.741C149.947 109.769 150.081 109.799 150.169 109.833ZM157.604 118.775V113.484C157.604 113.087 157.532 112.746 157.388 112.458C157.245 112.171 157.026 111.949 156.732 111.792C156.445 111.635 156.083 111.556 155.645 111.556C155.242 111.556 154.893 111.625 154.599 111.761C154.305 111.898 154.076 112.083 153.912 112.315C153.748 112.547 153.666 112.811 153.666 113.104H151.205C151.205 112.667 151.311 112.243 151.523 111.833C151.735 111.423 152.042 111.057 152.446 110.736C152.849 110.415 153.331 110.162 153.892 109.977C154.452 109.792 155.081 109.7 155.778 109.7C156.612 109.7 157.351 109.84 157.993 110.121C158.643 110.401 159.152 110.825 159.521 111.392C159.897 111.953 160.085 112.657 160.085 113.504V118.437C160.085 118.942 160.119 119.397 160.188 119.8C160.263 120.197 160.369 120.542 160.505 120.836V121H157.973C157.856 120.733 157.764 120.395 157.696 119.985C157.634 119.568 157.604 119.165 157.604 118.775ZM157.962 114.253L157.983 115.781H156.209C155.751 115.781 155.348 115.825 154.999 115.914C154.65 115.996 154.36 116.119 154.127 116.283C153.895 116.447 153.721 116.646 153.604 116.878C153.488 117.11 153.43 117.374 153.43 117.667C153.43 117.961 153.499 118.231 153.635 118.478C153.772 118.717 153.97 118.905 154.23 119.042C154.497 119.178 154.818 119.247 155.194 119.247C155.7 119.247 156.141 119.144 156.517 118.939C156.899 118.727 157.2 118.471 157.419 118.17C157.638 117.862 157.754 117.572 157.768 117.298L158.567 118.396C158.485 118.676 158.345 118.977 158.147 119.298C157.949 119.619 157.689 119.927 157.368 120.221C157.053 120.508 156.674 120.744 156.229 120.928C155.792 121.113 155.286 121.205 154.712 121.205C153.987 121.205 153.341 121.062 152.774 120.774C152.207 120.48 151.762 120.087 151.441 119.595C151.12 119.096 150.959 118.532 150.959 117.903C150.959 117.315 151.068 116.796 151.287 116.345C151.513 115.887 151.841 115.504 152.271 115.196C152.709 114.889 153.242 114.656 153.871 114.499C154.5 114.335 155.218 114.253 156.024 114.253H157.962ZM167.201 119.236C167.604 119.236 167.967 119.158 168.288 119C168.616 118.836 168.879 118.611 169.078 118.324C169.283 118.037 169.396 117.705 169.416 117.329H171.744C171.73 118.047 171.518 118.7 171.108 119.288C170.698 119.875 170.154 120.344 169.478 120.692C168.801 121.034 168.052 121.205 167.232 121.205C166.384 121.205 165.646 121.062 165.017 120.774C164.388 120.48 163.865 120.077 163.448 119.564C163.031 119.052 162.717 118.46 162.505 117.791C162.3 117.121 162.197 116.403 162.197 115.637V115.278C162.197 114.513 162.3 113.795 162.505 113.125C162.717 112.448 163.031 111.854 163.448 111.341C163.865 110.828 164.388 110.428 165.017 110.141C165.646 109.847 166.381 109.7 167.222 109.7C168.11 109.7 168.89 109.878 169.56 110.233C170.229 110.582 170.756 111.071 171.139 111.7C171.528 112.322 171.73 113.046 171.744 113.874H169.416C169.396 113.463 169.293 113.094 169.108 112.766C168.931 112.431 168.678 112.165 168.35 111.966C168.028 111.768 167.642 111.669 167.191 111.669C166.692 111.669 166.278 111.771 165.95 111.977C165.622 112.175 165.366 112.448 165.181 112.797C164.997 113.139 164.863 113.525 164.781 113.956C164.706 114.379 164.668 114.82 164.668 115.278V115.637C164.668 116.095 164.706 116.54 164.781 116.97C164.856 117.401 164.986 117.787 165.171 118.129C165.362 118.464 165.622 118.734 165.95 118.939C166.278 119.137 166.695 119.236 167.201 119.236ZM176.132 105.25V121H173.651V105.25H176.132ZM183.023 109.905L178.193 115.258L175.548 117.965L174.902 115.873L176.901 113.402L180.039 109.905H183.023ZM180.572 121L176.973 115.791L178.532 114.058L183.433 121H180.572ZM187.237 109.905V121H184.756V109.905H187.237ZM184.592 106.993C184.592 106.617 184.715 106.306 184.961 106.06C185.214 105.807 185.562 105.681 186.007 105.681C186.444 105.681 186.79 105.807 187.042 106.06C187.295 106.306 187.422 106.617 187.422 106.993C187.422 107.362 187.295 107.67 187.042 107.916C186.79 108.162 186.444 108.285 186.007 108.285C185.562 108.285 185.214 108.162 184.961 107.916C184.715 107.67 184.592 107.362 184.592 106.993ZM192.395 112.274V121H189.924V109.905H192.251L192.395 112.274ZM191.954 115.042L191.154 115.032C191.161 114.246 191.271 113.525 191.482 112.869C191.701 112.212 192.002 111.648 192.385 111.177C192.774 110.705 193.239 110.343 193.779 110.09C194.319 109.83 194.921 109.7 195.584 109.7C196.117 109.7 196.599 109.775 197.03 109.926C197.467 110.069 197.84 110.305 198.147 110.633C198.462 110.961 198.701 111.389 198.865 111.915C199.029 112.435 199.111 113.074 199.111 113.833V121H196.63V113.822C196.63 113.289 196.551 112.869 196.394 112.561C196.244 112.247 196.021 112.024 195.728 111.895C195.44 111.758 195.082 111.689 194.651 111.689C194.227 111.689 193.848 111.778 193.513 111.956C193.178 112.134 192.894 112.376 192.662 112.684C192.436 112.992 192.262 113.347 192.139 113.75C192.016 114.154 191.954 114.584 191.954 115.042ZM208.74 109.905H210.985V120.692C210.985 121.69 210.773 122.538 210.35 123.235C209.926 123.933 209.334 124.462 208.576 124.825C207.817 125.194 206.938 125.378 205.94 125.378C205.517 125.378 205.045 125.317 204.525 125.194C204.013 125.071 203.514 124.873 203.028 124.599C202.55 124.333 202.15 123.98 201.829 123.543L202.987 122.087C203.384 122.559 203.821 122.904 204.3 123.123C204.778 123.341 205.281 123.451 205.807 123.451C206.375 123.451 206.856 123.345 207.253 123.133C207.656 122.928 207.967 122.624 208.186 122.22C208.405 121.817 208.514 121.325 208.514 120.744V112.417L208.74 109.905ZM201.203 115.576V115.36C201.203 114.52 201.306 113.754 201.511 113.063C201.716 112.366 202.01 111.768 202.393 111.269C202.775 110.763 203.24 110.377 203.787 110.11C204.334 109.837 204.953 109.7 205.643 109.7C206.361 109.7 206.973 109.83 207.479 110.09C207.991 110.35 208.418 110.722 208.76 111.208C209.102 111.686 209.369 112.26 209.56 112.93C209.758 113.593 209.905 114.332 210.001 115.145V115.832C209.912 116.625 209.762 117.35 209.55 118.006C209.338 118.662 209.058 119.229 208.709 119.708C208.36 120.187 207.93 120.556 207.417 120.815C206.911 121.075 206.313 121.205 205.623 121.205C204.946 121.205 204.334 121.065 203.787 120.785C203.247 120.504 202.782 120.111 202.393 119.605C202.01 119.1 201.716 118.505 201.511 117.821C201.306 117.131 201.203 116.382 201.203 115.576ZM203.674 115.36V115.576C203.674 116.082 203.722 116.553 203.818 116.991C203.92 117.428 204.074 117.814 204.279 118.149C204.491 118.478 204.758 118.737 205.079 118.929C205.407 119.113 205.793 119.206 206.238 119.206C206.819 119.206 207.294 119.083 207.663 118.836C208.039 118.59 208.326 118.259 208.524 117.842C208.729 117.418 208.873 116.946 208.955 116.427V114.571C208.914 114.167 208.829 113.792 208.699 113.443C208.576 113.094 208.408 112.79 208.196 112.53C207.984 112.264 207.718 112.059 207.396 111.915C207.075 111.765 206.696 111.689 206.258 111.689C205.814 111.689 205.428 111.785 205.1 111.977C204.771 112.168 204.501 112.431 204.29 112.766C204.084 113.101 203.931 113.491 203.828 113.935C203.726 114.379 203.674 114.854 203.674 115.36Z" fill="white"/>
<defs>
<linearGradient id="paint0_linear_95_2" x1="230.5" y1="110" x2="230.5" y2="121" gradientUnits="userSpaceOnUse">
<stop stop-color="white"/>
</linearGradient>
</defs>
</svg>
